HIERARCHY
ROOT Hips
{
	OFFSET -0.001795 -0.223333 0.028219
	CHANNELS 6 Xposition Yposition Zposition Zrotation Yrotation Xrotation 
	JOINT LeftUpLeg
	{
		OFFSET 0.069520 -0.091406 -0.006815
		CHANNELS 3 Zrotation Yrotation Xrotation
		JOINT LeftLeg
		{
			OFFSET 0.034277 -0.375199 -0.004496
			CHANNELS 3 Zrotation Yrotation Xrotation
			JOINT LeftFoot
			{
				OFFSET -0.013596 -0.397961 -0.043693
				CHANNELS 3 Zrotation Yrotation Xrotation
				JOINT LeftToe
				{
					OFFSET 0.026358 -0.055791 0.119288
					CHANNELS 3 Zrotation Yrotation Xrotation
					End Site
					{
						OFFSET 0.000000 0.000000 0.000000
					}
				}
			}
		}
	}
	JOINT RightUpLeg
	{
		OFFSET -0.067670 -0.090522 -0.004320
		CHANNELS 3 Zrotation Yrotation Xrotation
		JOINT RightLeg
		{
			OFFSET -0.038290 -0.382569 -0.008850
			CHANNELS 3 Zrotation Yrotation Xrotation
			JOINT RightFoot
			{
				OFFSET 0.015774 -0.398415 -0.042312
				CHANNELS 3 Zrotation Yrotation Xrotation
				JOINT RightToe
				{
					OFFSET -0.025372 -0.048144 0.123348
					CHANNELS 3 Zrotation Yrotation Xrotation
					End Site
					{
						OFFSET 0.000000 0.000000 0.000000
					}
				}
			}
		}
	}
	JOINT Spine
	{
		OFFSET -0.002533 0.108963 -0.026696
		CHANNELS 3 Zrotation Yrotation Xrotation
		JOINT Spine1
		{
			OFFSET 0.005487 0.135180 0.001092
			CHANNELS 3 Zrotation Yrotation Xrotation
			JOINT Spine2
			{
				OFFSET 0.001457 0.052922 0.025425
				CHANNELS 3 Zrotation Yrotation Xrotation
				JOINT Neck
				{
					OFFSET -0.002778 0.213870 -0.042857
					CHANNELS 3 Zrotation Yrotation Xrotation
					JOINT Head
					{
						OFFSET 0.005152 0.064970 0.051349
						CHANNELS 3 Zrotation Yrotation Xrotation
						End Site
						{
							OFFSET 0.000000 0.000000 0.000000
						}
					}
				}
				JOINT LeftShoulder
				{
					OFFSET 0.078845 0.121749 -0.034090
					CHANNELS 3 Zrotation Yrotation Xrotation
					JOINT LeftArm
					{
						OFFSET 0.090977 0.030469 -0.008868
						CHANNELS 3 Zrotation Yrotation Xrotation
						JOINT LeftForeArm
						{
							OFFSET 0.259612 -0.012772 -0.027456
							CHANNELS 3 Zrotation Yrotation Xrotation
							JOINT LeftHand
							{
								OFFSET 0.249234 0.008986 -0.001171
								CHANNELS 3 Zrotation Yrotation Xrotation
								End Site
								{
									OFFSET 0.000000 0.000000 0.000000
								}
							}
						}
					}
				}
				JOINT RightShoulder
				{
					OFFSET -0.081759 0.118833 -0.038615
					CHANNELS 3 Zrotation Yrotation Xrotation
					JOINT RightArm
					{
						OFFSET -0.096012 0.032551 -0.009143
						CHANNELS 3 Zrotation Yrotation Xrotation
						JOINT RightForeArm
						{
							OFFSET -0.253742 -0.013329 -0.021401
							CHANNELS 3 Zrotation Yrotation Xrotation
							JOINT RightHand
							{
								OFFSET -0.255298 0.007772 -0.005559
								CHANNELS 3 Zrotation Yrotation Xrotation
								End Site
								{
									OFFSET 0.000000 0.000000 0.000000
								}
							}
						}
					}
				}
			}
		}
	}
}
MOTION
Frames: 15
Frame Time: 0.050000
0.000000 0.959803 0.000000 -0.475849 1.755220 0.108420 2.728591 0.267712 4.778363 -2.477381 0.342441 -6.994099 3.001617 10.040745 13.619076 0.000000 0.000000 0.000000 -0.979932 -0.083331 1.105445 0.544462 -0.051791 0.233771 -3.110994 -10.522357 11.235616 0.000000 0.000000 0.000000 1.087156 -0.259891 4.943593 1.206229 0.424764 -26.555199 -2.187498 0.063503 28.449153 3.275271 -0.686518 -20.747623 0.000000 0.000000 0.000000 1.710787 7.982683 -2.644866 -6.866057 -13.452087 -1.189761 11.489977 -4.949190 -0.290603 0.000000 0.000000 0.000000 -5.842826 -7.856813 -2.311355 11.355183 9.443996 -1.328644 -11.054812 8.315718 -0.288956 0.000000 0.000000 0.000000 
0.000269 0.958781 0.002093 -0.868126 1.751018 0.305045 3.085432 0.295929 5.624130 -2.301818 0.351135 -8.473608 3.040402 9.933408 12.874920 0.000000 0.000000 0.000000 -0.540321 -0.152633 1.684345 0.256051 -0.045669 -0.477564 -3.542510 -11.306787 11.020262 0.000000 0.000000 0.000000 1.456378 -0.263988 4.632177 0.717574 0.536462 -26.813327 -1.790324 -0.551198 28.252076 2.146356 -0.010130 -21.224986 0.000000 0.000000 0.000000 0.986230 7.508677 -2.578397 -6.679517 -11.385013 -1.164778 8.227313 -7.079564 -0.235202 0.000000 0.000000 0.000000 -5.407173 -7.026763 -2.042394 11.288784 7.773863 -1.356635 -10.470367 10.387497 -0.415543 0.000000 0.000000 0.000000 
0.000370 0.958059 0.003531 -0.619347 1.292197 0.134030 2.882164 0.336384 5.923529 -2.135196 0.339864 -7.689413 3.394735 10.484856 13.089519 0.000000 0.000000 0.000000 -1.344407 -0.129983 1.761879 0.686984 -0.086293 -0.346298 -2.726994 -9.926066 11.638955 0.000000 0.000000 0.000000 1.101376 -0.242885 4.598251 0.875094 0.514842 -27.421716 -1.999665 0.417766 29.618860 2.620040 -0.131452 -22.167871 0.000000 0.000000 0.000000 -0.229017 7.820979 -2.834639 -7.047710 -12.609888 -1.214672 8.552780 -8.232355 -0.314585 0.000000 0.000000 0.000000 -3.738149 -7.811304 -2.496965 12.716852 9.553118 -1.445165 -11.092242 9.719286 -0.383400 0.000000 0.000000 0.000000 
0.000465 0.957722 0.004806 -0.623535 1.176911 -0.420826 2.818312 0.380677 6.463352 -2.072770 0.331600 -7.182684 3.432836 10.249505 11.716530 0.000000 0.000000 0.000000 -1.519289 -0.199348 2.598770 1.030776 -0.134042 -0.720357 -2.607623 -9.935522 12.677257 0.000000 0.000000 0.000000 0.947933 -0.254156 5.016155 1.343277 0.437050 -28.128460 -2.307967 -0.016340 30.726090 2.417319 -0.058520 -22.802411 0.000000 0.000000 0.000000 -1.119908 8.243927 -3.103730 -9.298293 -12.547766 -1.373594 9.009004 -9.235396 -0.373440 0.000000 0.000000 0.000000 -3.757322 -7.475332 -2.364324 13.335665 10.232384 -1.467166 -9.707743 9.530948 -0.299741 0.000000 0.000000 0.000000 
0.000364 0.958062 0.005779 -0.616122 1.319014 -0.760329 3.003538 0.384780 6.735504 -2.229746 0.333710 -6.872294 2.985241 9.647444 12.145079 0.000000 0.000000 0.000000 -1.378432 -0.247949 3.050627 0.784535 -0.112387 -0.822009 -2.621185 -10.001368 12.950161 0.000000 0.000000 0.000000 0.597439 -0.240109 5.108314 1.721803 0.347111 -27.837277 -2.338460 0.234935 29.916036 2.670850 -0.232907 -21.769655 0.000000 0.000000 0.000000 -1.751450 7.513654 -2.898015 -10.934440 -12.668782 -1.424291 7.896369 -11.253993 -0.368117 0.000000 0.000000 0.000000 -3.084714 -6.517846 -2.102158 14.983624 9.833994 -1.551160 -8.568907 10.191152 -0.250738 0.000000 0.000000 0.000000 
0.000292 0.958406 0.006395 -0.482537 1.726486 -0.706866 2.948736 0.369814 6.531831 -2.154291 0.323240 -6.542839 3.011233 9.642133 11.778112 0.000000 0.000000 0.000000 -1.776191 -0.237540 3.110353 0.868452 -0.120607 -0.793367 -2.468404 -9.686179 13.034415 0.000000 0.000000 0.000000 0.189811 -0.201785 4.696358 1.915827 0.306637 -27.680678 -2.420402 -0.453352 30.100947 2.712051 -0.249115 -22.789125 0.000000 0.000000 0.000000 -2.269282 7.796041 -3.060187 -13.710686 -13.166524 -1.563280 7.552407 -12.510491 -0.351690 0.000000 0.000000 0.000000 -3.312059 -6.155405 -1.944192 17.801650 10.800239 -1.625619 -7.801335 10.308921 -0.202176 0.000000 0.000000 0.000000 
0.000225 0.958375 0.006717 -0.409490 1.650567 -0.744278 3.054503 0.365721 6.560774 -2.355685 0.332410 -6.435975 3.005801 9.656263 11.906580 0.000000 0.000000 0.000000 -1.655340 -0.237817 3.056724 0.472302 -0.075656 -0.678775 -2.298686 -9.313136 12.711233 0.000000 0.000000 0.000000 0.095371 -0.202490 4.821006 2.110712 0.250978 -27.313917 -2.502466 -0.448620 29.599926 2.716132 -0.240320 -22.869223 0.000000 0.000000 0.000000 -3.171156 7.480962 -3.042157 -15.312120 -12.894041 -1.646106 6.195246 -13.243371 -0.217828 0.000000 0.000000 0.000000 -2.248337 -5.613492 -1.837294 19.042073 10.909711 -1.660124 -6.786166 10.485128 -0.138599 0.000000 0.000000 0.000000 
0.000203 0.958226 0.006946 -0.383897 1.784085 -0.571801 3.127989 0.336705 6.223003 -2.257607 0.321480 -6.032203 3.201052 9.994484 11.981110 0.000000 0.000000 0.000000 -1.569468 -0.226805 2.888359 0.302433 -0.050494 -0.472546 -2.314406 -9.246965 12.354211 0.000000 0.000000 0.000000 0.162546 -0.201569 4.721136 2.048367 0.272543 -27.486062 -2.634974 -0.517913 29.981219 3.147863 -0.461746 -23.485720 0.000000 0.000000 0.000000 -4.127004 7.038908 -2.976518 -16.848144 -12.646122 -1.767667 5.206287 -13.990391 -0.111597 0.000000 0.000000 0.000000 -1.401065 -5.320349 -1.805339 20.907957 11.297015 -1.735711 -6.112515 10.504143 -0.086557 0.000000 0.000000 0.000000 
0.000256 0.957922 0.007216 -0.358588 1.708021 -0.396095 3.363502 0.305652 5.974141 -2.599814 0.338095 -5.847758 3.307281 10.121662 11.830966 0.000000 0.000000 0.000000 -1.681723 -0.204879 2.708355 0.483141 -0.065259 -0.349485 -2.236926 -9.032147 12.002776 0.000000 0.000000 0.000000 0.134683 -0.192622 4.543411 2.178174 0.234926 -27.230359 -2.666127 -0.416966 29.775183 3.160599 -0.419765 -23.840243 0.000000 0.000000 0.000000 -5.109974 6.683303 -2.948680 -18.287422 -12.575793 -1.848128 4.347060 -14.284467 -0.006255 0.000000 0.000000 0.000000 -0.331873 -4.957836 -1.756226 22.119176 11.485883 -1.764095 -5.558764 10.719676 -0.049050 0.000000 0.000000 0.000000 
0.000340 0.957726 0.007577 -0.330593 1.621500 -0.108026 3.337436 0.286131 5.628120 -2.752941 0.346681 -5.839075 3.654967 10.643362 11.731929 0.000000 0.000000 0.000000 -1.759071 -0.165647 2.315771 0.515478 -0.064797 -0.240298 -2.294597 -9.082000 11.700554 0.000000 0.000000 0.000000 0.207840 -0.180030 4.171008 2.038920 0.254612 -27.011483 -2.684510 -0.381743 29.748625 3.331244 -0.497008 -24.111123 0.000000 0.000000 0.000000 -5.963216 6.372526 -2.917611 -19.707834 -12.285788 -1.959587 3.525427 -14.858861 0.101675 0.000000 0.000000 0.000000 0.677836 -4.657676 -1.720843 23.603693 11.529339 -1.823225 -4.587225 10.899252 0.019749 0.000000 0.000000 0.000000 
0.000433 0.957322 0.008134 -0.357970 1.497279 -0.097672 3.486272 0.270379 5.493778 -2.810744 0.349312 -5.654540 3.777893 10.833120 11.755817 0.000000 0.000000 0.000000 -1.718499 -0.163753 2.283995 0.542494 -0.065350 -0.175631 -2.418511 -9.308356 11.593631 0.000000 0.000000 0.000000 0.262248 -0.180966 4.137888 1.976703 0.259634 -26.821851 -2.666320 -0.222364 29.485856 3.452902 -0.541682 -24.200219 0.000000 0.000000 0.000000 -6.866348 5.854851 -2.807529 -21.055589 -11.881735 -2.078268 2.733203 -15.344970 0.209648 0.000000 0.000000 0.000000 2.002002 -4.219856 -1.650497 25.117945 11.154810 -1.940526 -4.001565 11.705893 0.063511 0.000000 0.000000 0.000000 
0.000441 0.957020 0.008961 -0.313991 1.469580 -0.061145 3.526606 0.266762 5.471262 -2.902397 0.354612 -5.644535 3.882852 11.005184 11.797307 0.000000 0.000000 0.000000 -1.779744 -0.161615 2.291363 0.619111 -0.066624 0.030831 -2.501397 -9.418046 11.356916 0.000000 0.000000 0.000000 0.181366 -0.171220 3.995855 2.034544 0.241064 -26.664377 -2.672613 -0.172897 29.361326 3.415774 -0.482553 -24.468879 0.000000 0.000000 0.000000 -7.734428 5.630765 -2.812575 -22.917315 -11.608409 -2.225310 1.757050 -15.814394 0.354940 0.000000 0.000000 0.000000 3.247030 -3.919385 -1.621023 27.066107 10.740207 -2.101774 -2.973135 13.042160 0.159728 0.000000 0.000000 0.000000 
0.000431 0.956755 0.009854 -0.352889 1.417263 -0.065425 3.642756 0.262504 5.513785 -2.960727 0.357466 -5.522827 3.799314 10.878369 11.845791 0.000000 0.000000 0.000000 -1.813795 -0.170050 2.407939 0.677160 -0.079380 -0.163995 -2.673778 -9.759607 11.387914 0.000000 0.000000 0.000000 0.226255 -0.166761 3.848932 1.940691 0.250585 -26.384265 -2.549395 0.093547 29.244975 3.366553 -0.394846 -24.595021 0.000000 0.000000 0.000000 -8.912117 4.975239 -2.679937 -24.402436 -11.530861 -2.321008 1.165909 -15.742661 0.433454 0.000000 0.000000 0.000000 4.836487 -3.591712 -1.587565 29.292180 10.169441 -2.335451 -2.397576 14.300935 0.243228 0.000000 0.000000 0.000000 
0.000429 0.956408 0.010550 -0.320211 1.515216 -0.173101 3.797899 0.255935 5.582046 -3.084726 0.363031 -5.362430 3.781684 10.867754 11.887495 0.000000 0.000000 0.000000 -1.946126 -0.174538 2.510891 0.815239 -0.092554 -0.103880 -2.786088 -9.919520 11.172128 0.000000 0.000000 0.000000 0.260608 -0.172112 3.942174 1.799352 0.271614 -26.068502 -2.527968 0.086241 29.035467 3.357264 -0.332752 -25.053505 0.000000 0.000000 0.000000 -9.887093 4.490204 -2.578541 -26.320617 -11.595910 -2.421535 0.707251 -15.682213 0.502100 0.000000 0.000000 0.000000 6.354969 -3.191780 -1.517617 31.432155 9.845826 -2.522369 -1.600725 15.566206 0.365036 0.000000 0.000000 0.000000 
0.000502 0.955866 0.010968 -0.364892 1.564375 -0.147606 4.007178 0.241269 5.581912 -3.237515 0.370808 -5.203731 3.678727 10.654715 11.627623 0.000000 0.000000 0.000000 -2.003030 -0.183435 2.640771 1.046607 -0.122336 -0.255622 -2.901161 -10.103178 11.016013 0.000000 0.000000 0.000000 0.249169 -0.166546 3.823191 1.761351 0.272847 -25.847538 -2.460258 0.082257 28.920303 3.260227 -0.240887 -25.319479 0.000000 0.000000 0.000000 -11.228518 3.813764 -2.418688 -27.694420 -11.666752 -2.488680 0.359450 -15.322598 0.541522 0.000000 0.000000 0.000000 7.661999 -2.575660 -1.332604 33.446859 9.550845 -2.704510 -0.974121 16.474999 0.473883 0.000000 0.000000 0.000000 
